# xmcd
#
# Track frame offsets: 
#        150
#        21920
#        38767
#        57912
#        75775
#        91375
#        110530
#        126577
#        143615
#        161037
#
# Disc length: 2365 seconds
#
# Revision: 3
# Processed by: cddbd v1.5.2PL0 Copyright (c) Steve Scherf et al.
# Submitted via: ExactAudioCopy v0.95a5
#
DISCID=7b093b0a
DTITLE=Beyond - 犹豫
DYEAR=2004
DGENRE=Rock and Roll
TTITLE0=AMANI
TTITLE1=坚持信念
TTITLE2=不再犹豫
TTITLE3=系要听Rock N'Roll
TTITLE4=我早应该习惯
TTITLE5=谁伴我闯荡
TTITLE6=高温派对
TTITLE7=谁来主宰
TTITLE8=爱你一切
TTITLE9=完全的拥有
EXTD=YEAR: 1991
EXTT0=
EXTT1=
EXTT2=
EXTT3=
EXTT4=
EXTT5=
EXTT6=
EXTT7=
EXTT8=
EXTT9=
PLAYORDER=
